<svg xmlns="http://www.w3.org/2000/svg" viewBox="0 0 483.84 169.95"><title>next</title><g id="Layer_2" data-name="Layer 2"><g id="Layer_1-2" data-name="Layer 1"><path d="M184.28,197.8c-.18-2.54-1.52-2.3-2.21-2.87-2.74-2.25-7.5-2.59-6.3-8.4.65-3.17-3.48-4.18-7-6.17,5.14-.58,7.41-2.94,7.92-6.93.09-.69.22-1.37-.54-1.68s-1.23.19-1.56.83c-3.37,6.38-4.2,6.48-10.83,1.11-.6-.49-.9-1.36-2.07-1.24-.87,2.5.77,3.58,2.34,4.85,2.07,1.67,1.34,3.24-1,3.09-2.93-.2-4.63,1.48-6.59,3-1.05.8-2.05,2.07-3.43.84a3.36,3.36,0,0,1-.77-3.72,35.58,35.58,0,0,1,2.56-4.84c.76-1.36.72-2.56-.63-3.49-1-.67-2.2-1.3-3.27-.61-1.86,1.22.64,1.72.64,2.71,0,2.5-1.65,4.11-3.65,3.87-2.8-.33-7.06,0-6.82-4.53.19-3.54-2.37-6-2.57-9.4-.16-2.93-1.74-5.78-2.7-8.67-3,1.2-1.05,3.88-2.35,5.46-1.93,0-1.61-4.47-4.29-2.5-2,1.47-.59,3.15.52,4.73,1.66,2.36,0,2.61-2,3-4.37.85-6.93,7.29-4,10.57,2.29,2.53,2.16,4.66-.22,6.23-2.65,1.74-5.87,1.9-7.85-1.28-2.43-3.89-5.64-7.21-4-13,1.38-4.71-2.2-9.79-1.43-15,.31-2.11-.38-4.42.15-6.44,1.48-5.65.63-11.15-.35-16.71-.75-4.29-.11-7.71,5.35-7.85.64,0,1.3-.54,1.92-.5,9,.73,17.82-2,26.65-1.49,6.3.37,11.91-2.34,18-2,8.91.56,17.7-2,26.68-1.19a17.63,17.63,0,0,0,8.79-1.17c7.15-3.4,14.7-.55,21.95-2,2.22-.43,3.94,2.23,5.7,3.69,2.54,2.12.91,3.68-.92,5.17a1.84,1.84,0,0,0-.37,1.32c4.55,2.58,3.46,9.88,9.42,11.24.49.11,1,.53,1.42.43,9.13-2.06,18.61-1.7,27.66-4.86,5.28-1.85,11.38-1.22,16.95-2.45,7.51-1.66,15.22-1.56,22.77-3.31,3.17-.73,7.82-.8,11.58-.89,5.6-.15,12.12.16,17.49-3.24a20.59,20.59,0,0,1,3.62-1.59,110.16,110.16,0,0,1,14.95-4.6c5.4-1.23,10.64-3.77,16.21-4,4.79-.21,9.62.58,14.45-.1,1.21-.17,2.46.15,2.8,1.52a2,2,0,0,1-1.77,2.54c-5.4-.09-9.41,3.89-14.52,4.74-2.45.4-4.53,1.22-6.09-1.4-.37-.61-1.35-1.22-1.53-.73-1.37,3.9-6.24,1.46-8,4.57a2.43,2.43,0,0,1-2.48,1.4c-7.41-1.63-13.4,4.07-20.57,3.92-1.48,0-3.3,2.1-2.74,3.59,1,2.57,2.32.16,3.34-.43,2.3-1.34,4.59.35,6.9.24,5.38-.24,9.31-4.75,14.72-3.88,2.61.42,3.63-1.94,5.32-3.68,1.34,1.4,2.48,2.92,1.6,4.72a4.31,4.31,0,0,1-4.64,2.34c-3.88-.69-6.79.82-9.37,3.45-.34.36-.75,1-1.12,1-6.93,0-12.51,5.18-19.38,5.08-4.12-.06-7.61.28-9.34,4.81-.46,1.19-1.77,3.13-3.39,1.89s.52-2.1,1.17-3.05a1.74,1.74,0,0,0,.1-2.28,1.6,1.6,0,0,0-2.6-.08c-1.94,2.21-4.49,1.49-6.84,1.29-.25,1.72.91,1.93,1.73,2.4,1,.57,2.29,1,1.69,2.55a2,2,0,0,1-2.54,1.08c-3.25-.73-5,1.14-6.47,3.51-2,3.13-4.95,3.44-7.84,1.93-2.73-1.43-4.5-1.27-6.37,1.26-2.95,4-8.23,5.23-11.14,9.52-1.27,1.88-3.5-.25-5.6-1.58.15,1.61.17,2.42.32,3.2.28,1.58.26,3.07-1.38,3.89-1.47.74-2.5-.2-3.52-1.13-.8-.73-1.37-2.14-2.83-1.44-1,.49-1.09,1.6-1.08,2.61,0,1.54,1,1.88,2.36,1.83s2.78.53,2.44,2.3-1.51,2-3,1.3c-1-.49-2.31-.42-2.29.85.08,6.4-4.65,9-9.23,11.26-5.66,2.8-6.45,7.22-5.45,13.21a13.42,13.42,0,0,0,3.17-6.12c.33-1.53.72-3.07,2.61-3.13a4.71,4.71,0,0,1,4.34,2c1.09,1.86-.79,2.37-1.91,3.34-2.06,1.77-1.27,5-3.52,7.13,4.37-.94,6.76,1.19,8.6,4.41a9.49,9.49,0,0,0,3.75,3.2c1.53.93,3.49,2,2.69,4.21A5.8,5.8,0,0,1,257,220a9.2,9.2,0,0,1-6.77-1.16c-3.11-2.08-5.9-1.28-9.1-.25,1,2.58,3.68,1.12,5.27,2.52-1.92,3.16-3.6,6.41,2.68,4.15a1.7,1.7,0,0,1,1.43.27c6.44,5.64,12.12.69,17.83-1.49,2.48-1,3.88-1,5.45,1.2,1.73,2.47,5,5.79,7,4.58,4-2.45,6.15-2.73,8.68,1.53.55.92,2.32-.51,1.87-2.25-.3-1.15-1.64-2.89.52-3,1.65-.09,1.21,2,1.2,3.24,0,.33-.13.66-.13,1,0,1.67-.16,4,1.94,3.92,2.51-.13.81-2.21.68-3.47-.11-1-.31-2.07,1-2.45a1.87,1.87,0,0,1,2.43,1.18c.58,1.52,1.6,2.51,2.95,1.3,4.58-4.1,9.87-.44,14.71-1.52.84-.19,1.91.47,2.83.85,1.73.72,3.66,1.57,2.83,3.92s-2.76,2.65-4.93,1.72c-.87-.37-1.72-2.2-2.59,0-.67,1.67,0,2.58,1.7,2.74,3.54.33,7.63,2.61,9.16-3.3.61-2.3,3.21-1.86,5.22-1.86s4.74,1.51,5.11-3.38c.08,4.91,1.36,4.93,5.28,5.06,6.44.23,13.39.12,18.55,7.22,2.74,3.78,8,6.71,11.73,10.56,2.39,2.45,3.73,5.76,7,7.59,1.81,1,1.28,3.2-.81,4.37-3.61,2-1.41,2.89.79,3.57a21.26,21.26,0,0,0,9.9.33c2.76-.47,4.44-6.33,2.27-8.79s-3.54-6.1-6.93-7.72a4.12,4.12,0,0,1-2.43-4.06c.07-2.25-1.45-3.38-2.82-4.92-3.22-3.6-6.4-7-8.16-12.07s-3.54-10.95-8.09-14.82c-1.28-1.1-3-1.74-1.43-3.86s3.1-4.08,6.12-3a4.37,4.37,0,0,1,1.57,1.21c5,5.32,11.21,7.65,18.33,8.48a8.9,8.9,0,0,1,7.07,6.39c.76,2.73,5.46,4.07,2.45,8.64-1.52,2.3,2.82,5.73,4.73,7.76,2.54,2.69,4.78,5.94,8,8.09,1.81,1.22,3.34,4.06,5.91,2s4-5.43,1.8-8.41c-3-4-4.75-8.63-7.5-12.77-4.13-6.23-10.07-11.13-13.09-18.11-.44-1-1.51-1.21-2.45-1.53-1.37-.47-2.91-1.74-2.64-2.71,1.56-5.8-3.19-9-5.39-13-5.27-9.61-13.4-15.79-24.65-17.19-1.72-.22-2.33.9-3,2.06-2.37,4-6.29,3.82-10.12,3.54a2.8,2.8,0,0,1-2.66-3.9c.61-2.06,2.38-1.29,3.77-.81.77.26,1.41.89,2.17,1.21a1.44,1.44,0,0,0,2-.92c.24-.57.43-1.7.19-1.84-2.74-1.67-5.92-1.38-8.93-1.51-2.53-.1-1.9,1.85-1.7,3.61.22,1.93-.21,3.27-2.88,2a34.16,34.16,0,0,0-8-2.32c-1.57-.33-3.43-.58-4.34,1.43-.65,1.45-.52,3.74-2.65,3.78-2.78.06-5.92,1.16-8.3-.44s-3.37-1.54-4.53.92c-.55,1.17-1.36,2.7-3,1.83-1.3-.71-.48-2.09-.1-3.15.54-1.49,1.2-3.3-1.22-3.22-1.55,0-4.19.4-3.55,3,.92,3.7-.83,4-3.34,2.85-3.37-1.52-6.67-.92-9.74.19-5.81,2.12-11.73,1.58-17.66,1.51-1.73,0-3.77-.51-3.65-2.53.14-2.27,2.22-2.62,4.21-2.33.82.12,1.6.49,2.42.59,1.19.15,2.58.15,2.65-1.41.05-1.19-1-1.54-2.17-1.4s-2.59,1.16-2.55-.92c0-1.47,1.55-1.48,2.72-1.56a68.72,68.72,0,0,1,14.34,0c3.37.44,7.21-2,9.39,3.67,0-5.22,2.22-5.19,6.09-5.86,11.36-2,22.89-2.16,34.24-4.24a55.94,55.94,0,0,1,19.07-.24c1.7.28,3.23.49,4,2.38a2.22,2.22,0,0,0,2.84,1.47c2.8-1.14,5.52-2.59,5.76,2.39,0,.26.72.62,1.15.72,5.81,1.33,8.9,2.69,12.08,5.3.37.3,1,.72,1.29.6,5.28-1.86,7.6,2.58,10.75,5.09,1.86,1.49,3.4,2,5.86,1.09,4.56-1.66,8.46,1.58,8.2,6.45-.08,1.44.08,2.46,1.83,1.81,3.37-1.26,4.13-.19,2.68,2.9a3.24,3.24,0,0,0,.6,3.68c3.16,4.05,7.19,7.74,9.15,12.3,1.58,3.68,5.65,5.74,5.73,10.22,0,2,2,1.58,3.56,1.4,3.08-.36,4.69-3.78,8-3.69.73,0,.62-1.09.27-1.66-5.28-8.65-7-19-13.05-27.29a32.76,32.76,0,0,0-10.07-9.27c-2.17-1.26-4.66-2.36-3.42-5.67a1.78,1.78,0,0,0-.54-2.23c-2.45-1.72-4.68-3.44-2.36-6.82.18-.26-.06-1.05-.35-1.36-4.51-4.79-6.66-11.19-10.86-16.15-3.63-4.28-13.3-5.52-18.06-2.58a8.17,8.17,0,0,1-5.25,1.15c-3.08-.3-6-.07-8.47,2a2.82,2.82,0,0,1-3.25.61c-1.55-.88-.39-2,0-3a2,2,0,0,0-.6-2.64A2.69,2.69,0,0,0,365,151c-1.48.63-1.46,1.59-.72,2.8s.81,2.26-.57,3a3.46,3.46,0,0,1-3.37,0c-1.56-.93-1.17-2.18-.39-3.42.56-.88,1-1.84,0-2.65a1.09,1.09,0,0,0-1.67.51c-1.78,7.37-7.62,2.57-11.41,3.53-3.07.79-7.8,3.15-7.75,6.39,0,2-.66,3.07-2.41,2.82a8.37,8.37,0,0,0-5.18,1.13c-1.58.76-3,.49-3-1.8,0-1.1.66-2.76-1.17-2.57s-4,1.25-3.86,3.25c.34,4-.49,3.72-4.51,4.43-5.38.94-7.78-3.79-12.28-3.35-2.91.29-5.73-.23-6.92,3.28-.63,1.84-2.2,1.82-3.69,1.89-3.91.18-8.06-1-11.44,2.12a1.3,1.3,0,0,1-1.82-.06,1.15,1.15,0,0,1-.1-1.77c2.17-1.79,2.71-4.51,5.47-6.44,7.37-5.13,15.79-2.73,23.29-5.19,5.65-1.85,12-.85,17.16-4.34.8-.54,2-1.21,2.75-1,5.49,1.38,9.81-3.33,14.72-3,7.19.48,12.91-6.16,20.29-3.54.26.09.64-.11.95-.21,5.57-1.94,9.9-.76,13.5,4.09,1.46-7.1,7.39-4.84,11.46-5.34,5-.61,10.18,2.42,15.43.41.14,0,.45,0,.48,0,3,7.25,4.69,1.18,7.69-.16,3.58-1.6,7.87.48,11.66,1.91a1.36,1.36,0,0,1,.57,1.21c-.37,1.35-1.42,1-2.43.82-2.89-.35-5.93-.92-7.58,3.46a10.34,10.34,0,0,1,8.48,1.7c2.1,1.44,5.35-.88,7.5-3,1.86-1.85,2.59-6.21,7-2.23,1.22,1.09,5.61-1.33,8.83-1.38,4.24-.07,8.19-.33,11.72,2.66,4.29,3.65,8.42.64,12.32-1,1.81-.75,2.56-.94,4.11.45,2.66,2.36,6.22,3,9.67,3.44a59.09,59.09,0,0,1,14.7,3.78,3,3,0,0,0,2.85,0c5.48-3.34,10.48-2.47,15.31,1.48,1.06.87,2.51,2.13,4.06,1.19,2.33-1.42,4.67-1.37,6.44.38,2,1.94.79,4.34-.15,6.51a10.89,10.89,0,0,0-.34,2c4.76-1.67,9.31-.14,13.9-.25,2.11-.06,3.15-1.71,4.85-2.27,1-.34,2.09-1.79,3-.48s-.69,1.87-1.45,2.64a4.42,4.42,0,0,0-.59,1.31c5.69-.13,8.11-2.81,7.3-8-.16-1.06-.43-2.09.72-2.57,1.9-.8,2.57,1,3.6,2,.84.79,1.95,1.69.31,2.74-2.23,1.42-3.88,4.14-2.37,5.79a13,13,0,0,0,8.61,4.4c2.65.12,4.92-1.85,6.79-3.71.87-.87.33-1.82-1.1-1.9-3.7-.2-3.68-2.65-3.15-5.35.88-4.48-2.33-9-6.73-8.19-7,1.24-12.4-1.72-17.83-5.14-1-.63-2.05-1.73-3.1-.86-4.29,3.6-7.42.11-10.81-1.63-.86-.43-1.55-1.83-2.28-1.79-7.53.35-14.26-3.77-21.62-3.82-3.65,0-7.17.47-10.76-.93-2.54-1-5.17-.11-7.46,2.82-.53-4.33-3.22-5.2-6.09-6.39-12.11-5-24.6-8.17-37.72-8.31-5.06-.06-10.08,2.29-15.17,1-8-2-16.24-2.87-23.63-7-2.6-1.45-3-3.15-2.77-5.66a3.37,3.37,0,0,1,4.72-3c6.57,2.43,13.62,2.34,20.33,4.55,6.21,2.06,12.48,5.58,19.58,4.2a4.69,4.69,0,0,1,5,1.55c1.09,1.36,2.66,1.19,4.16.9,4.44-.83,8.67-1.06,11.75,3.23a2.59,2.59,0,0,0,2.09,1.05c7.09-2,13.15,2.8,20.06,3.22,5.29.31,12.32-1.22,17,3.87.11.11.38.25.44.2,5.05-3.88,8.67,2.56,12.62,1.91s7.21.4,10.84,1.19c6.49,1.41,12.75,4.15,19.61,3.84a5.39,5.39,0,0,1,3.15,1.34c3.1,2.45,5.94,3.8,10.42,2.68,2.39-.59,5.76,2.63,8.63,4.22,1.15.64,2.12,1.45,3.6,1.47,8.86.16,9.61.75,12.77,9.55-2.89-.58-5.09-1.26-4.27,3.5.52,2.93-2.33,6.24-5.26,8.3-.8.56-1.83.82-2.62,1.4-1,.71-1.1,2.68-3,2.08-2.14-.7.59-2.92-1.26-3.85-5.39,9.21-13.82,10-23.36,8.87-5.67-.69-11.46-.62-17.18-.95-3.95-.23-6.68-2.83-10.32-3.26-.69-.08-1.23-1.85-2.37-1.11-7,4.55-13.68-.16-20.45-.68-6.06-.46-12-2.28-18.06-3.1-2.58-.35-4.29-2.2-6.85-2.69-6-1.14-11.43-2.58-17.86-.82-7,1.92-14.46-.21-21.7-1.34-3.27-.51-7.16-2.49-10,1.37-.47.65-1.25,1.48-1.14,2.09.53,3.18,5-.93,5.22,2.61.14,2.2-1,5,3,3,1.09-.53,2.58-.14,2,.88-3.05,5.5,2.42,7.68,4.42,10.81,1.85,2.91,3.44,6.19,6.19,8.83,1.29,1.23-.42,6.16,4,7.12-2.2,4.6,2.52,9.13,0,13.93-.61,1.2.32,3.14-1.9,3.79a2.58,2.58,0,0,0-1.57,1.72c-.61,6.3-5.53,8.12-10.34,9.78-5.47,1.9-9.34,5.29-12.72,10-4.54,6.35-9.45,12.55-18.36,13.47-2.09.22-7.56-1-5.16,5,.5,1.25-.87,1-1.63.66-1.48-.67-2.66,0-2.28,1.36,1.26,4.67-2.33,4.69-5,5.44-6.45,1.84-12.77,2.29-19.49.29-7.54-2.26-15.7-3.36-21.74-8.54-4.59-4-9.12-7.9-14-11.42-1.11-.8-2.09-2-3.48-1.39-4.25,1.82-9.11.79-13.11,2.18-6.08,2.11-11.83,1.73-17.93,1.33-7-.46-13.87,2.35-21.09,1.09-6.47-1.13-12.62-2.87-17.71-7-6.72-5.41-14.25-8.94-22.74-8-4.58.5-9.62.9-13.91,3.61-1.92,1.22-2.31,2.53-1.11,4,2.36,2.92,1.82,5-1.18,7a2.39,2.39,0,0,0-.77,3.5c.88,1.48,1.56,2.88-1.2,2.86-.83,0-1,.62-1.15,1.33-3,13.32-13.15,18.07-26.91,15.34a108.6,108.6,0,0,0-24.46-2.53,110.24,110.24,0,0,1-16.12-.66c-9.18-1.08-18.1.18-27.1,1.47a88.51,88.51,0,0,0-10,1.9c-2,.52-4.34.22-6.49,1.46-1.13.64-2.14-.51-2.37-1.85a4,4,0,0,1,1.06-3.71c5.33-5,3.83-11.3,3.64-17.42a62.06,62.06,0,0,1,.32-7.46,11.22,11.22,0,0,0-1.15-6.54c-1.41-2.8-.46-6.67,0-9.72a81.6,81.6,0,0,0,.61-20.53c-.38-4.1,2.9-6.82,6.46-8.38,2.43-1.06,4.53-1.74,6.14-4.4,1.91-3.14,6.38-3.08,9.48-5.1,3.55-2.32,6.52.16,9.8,2.28,2.91,1.87,7.11,1.6,10.63,2.66,4.23,1.29,7.49.23,10.19-3.13a3,3,0,0,1,2.71-1c2.87.22,5.42,2.12,8.08,2.25S181.22,195.39,184.28,197.8Zm12.37-31.46c-2.05-.11-2.62,0-2.92-.19a3.18,3.18,0,0,0-4.48.26,1.78,1.78,0,0,0-.17,2.3c1.18,1.9,2.79,1.41,4.34.63s2.8-.67,3.75,1c.5.86,1.23,1.75,2.38,1a2.07,2.07,0,0,0,.79-2.65c-3-4.1.12-7.08,1.84-10.2a13.93,13.93,0,0,0,1.83-7.6c-.08-1.6.19-3.52-1.74-4.3a3,3,0,0,0-3.59,1,3.28,3.28,0,0,0,.29,4.87c.84.8,2.05,1.79.73,2.83s-1.75-.75-2.54-1.4c-2-1.68-3.7-.39-3.06,1.44C195.35,158.93,190.44,163,196.65,166.34Zm.17,33.91c-.54,1.69-2.55,1.39-3.41,2.66-1.55,2.29-.76,4.21,1.08,5.65,1.08.85,3.13.75,3.24-.84.36-5.21,3.91-10.09,1.83-15.49-.84-2.18-2-4.06-.91-6.56.66-1.52-.39-2.9-1.72-3.77a2.31,2.31,0,0,0-2.79.22c-1.6,1.25-1,2.72-.13,4,2.08,3.13,1.41,5.83-.73,8.65-1,1.31-2.24,2.74-2.21,4.59C193.14,200.06,195.32,197.83,196.82,200.25Zm2.86,25.2c1.69-3.46-1.46-5.93-1-9,.25-1.54,0-4.28-2.51-3.94-2.93.38-2.27,2.82-1.43,4.7,2.1,4.72-2.76,10.16,1.51,14.7.18.19-.88,1.6-1.45,2.39-.78,1.08-1.08,2.24.16,3,1.65,1,2.46-.23,2.87-1.58C198.92,232.26,202.14,229.18,199.68,225.45ZM207,134.87c-1.89-2.22-3.34-4.39-5.27-6-.91-.76-1.93.81-1.52,1.68,1.49,3.15.47,5.39-1.53,8-1.62,2.13.27,4.09,2.42,5,1.54.65,4.12.77,4.11-1.11C205.16,139.78,203.53,137.06,207,134.87Zm45.37,32.5c.15-2.27.77-5.54-3.64-2.74-.3.19-.94-.1-1.42-.2-5.24-1.15-6.68.14-6.22,5.58.1,1.17.05,2.63,1.42,2.84,1.71.26,1.48-1.36,1.61-2.43.16-1.29-.16-3.08,1.37-3.4s1.71,1.71,2.5,2.66,1.42,2.45,3.1,1.72S253,169.32,252.32,167.37Zm-12.84,36c-4.68-3.21-8.53,1.35-12.53.14-.31-.1-3.59,1-3.12,3,.36,1.61,2.58,1,3.87,1.62C233.29,210.71,235,204.79,239.48,203.35Zm-36.92,46.26c.13-.66.18-1.16.32-1.64.68-2.44-.54-3.67-2.63-4.59-1.7-.74-3.24-1-4.5.58-1.72,2.1.29,3.22,1.34,4.59a3,3,0,0,1,.53,1.38c.3,2.44,1.91,3.71,4.08,3.44C204.8,253,201.85,250.67,202.56,249.61Zm1.38,17.56c0-2.77,4.75-4.76,1.18-7.4-1.78-1.32-5.09-1.53-6.28.7C196.4,265.05,203.25,263.86,203.94,267.17Zm80.63-125.28a6.64,6.64,0,0,0,4.07-.26c1.12-.53,2.84-.66,2.11-2.59-.54-1.42-1.82-2.18-3.17-1.53-1.8.86-3.5.45-5.28.36-1.35-.07-2.82.24-2.81,2s1.38,2,2.81,2Zm-74.3-18.54c.35-1.39,0-3.48-1.37-2.69-2.07,1.23-5.11,2.09-5.69,4.77-.39,1.83,1.33,3.48,3.3,3.58C210.64,129.21,209.62,125.66,210.27,123.35Zm59.42,27.9c2.66-.36,2.81-4.13,5.77-4.18,1.47,0,3.48-.3,2.87-2.34s-2.61-1.73-4.21-1c-2.11.9-4.28,1.78-5.66,3.78a2.85,2.85,0,0,0-.3,2.82A1.44,1.44,0,0,0,269.69,151.25Zm-73.85,28.07c1.54-.24,3.67,0,3.35-2.48-.2-1.53-.85-3.57-2.93-3.35-1.88.19-4.42.73-4.45,3.07C191.78,178.48,193.7,179.46,195.84,179.32ZM316.13,133c2.63-.23,5-.46,6.64-2.38a2.11,2.11,0,0,0-.11-3.14c-.84-.74-2.19-.76-2.54.31-1.19,3.6-3.44,3.32-6.22,2.15a1.85,1.85,0,0,0-1.63.73c-.43,1,.44,1.45,1.25,1.7S315.44,132.87,316.13,133ZM151.28,208.3c-1.43.35-2.91.57-2.41,2.11.72,2.25,1.3,5,4.43,5.08.94,0,2.36-.92,1.81-1.77C153.89,211.85,153.8,209,151.28,208.3Zm157.38-77c-2.75-.69-5.37-1.84-6.91,1.59-.69,1.54-1.09,3.44.89,4.3,1.78.78,2.2-.89,2.53-2.17C305.62,133.2,307.61,132.92,308.66,131.26ZM166.43,159.34c.36-2,.76-3.5-.78-4.55a1.2,1.2,0,0,0-1.76.32c-1.66,2.74,1.13,5.43.25,8.26-.06.21,1.68.13,1.91-.67A15.84,15.84,0,0,0,166.43,159.34Zm18.4,53.11c0,1.67,1.16,1.94,2.29,2.07,1.83.21,3.42-.34,3.43-2.49,0-1.45-.44-3.33-2.24-3.28C186.23,208.81,186,211.2,184.83,212.45Zm-8.78-49.93c-1,.48-3.12-.36-2.85,1.71a3.63,3.63,0,0,0,3.09,2.9c1.38.2,1.92-1.17,2.14-2.3C178.76,163.08,177.71,162.45,176.05,162.52ZM298.23,135.2c-.23-1.09-.21-2.57-1.7-2.55-1.77,0-2.4,1.53-2.49,3.07a1.87,1.87,0,0,0,2.11,2.12C297.72,137.77,298.45,136.81,298.23,135.2Zm-.13,7.71a4.86,4.86,0,0,0-3.29-2.31c-1-.3-1.59.4-1.57,1.3a2.6,2.6,0,0,0,2.75,2.79C297,144.72,298,144.52,298.1,142.91Z" transform="translate(-108.1 -109.76)"/><path d="M357.11,200.43c-1.37,4.38-3.76,6.32-8.2,4.85-1.57-.52-3.25-.77-4.79.31-1.85,1.3-3.26,1.12-4.43-1.06-1.6-3-3-2.41-3.55.61-.6,3.28-1.7,4-4.57,1.8-2.47-1.87-5.48-.19-8.19-.13-3.84.07-8.14-2.74-11.61,1.29-.45.53-1.37,0-1.55-.66-.36-1.4-1.54-3.55-.3-4.15,3.49-1.69,3-3.78,1.8-6.57-.46-1,1.12-2.33,1.62-1.95,3.45,2.58,7.46-1.86,10.78,1,.34.3,1.21.56,1.36.39,3.21-3.48,6.72-.07,10-.48.46-.06,1.26-.08,1.4.16,3.22,5.83,10,1.73,14.12,5.11C353,202.61,354.67,199.81,357.11,200.43Z" transform="translate(-108.1 -109.76)"/><path d="M294.62,196.39c3.11-1.31,6.82.26,10.64.71,2.27.26,3.05,1,2.55,3.06a35.83,35.83,0,0,1-1.87,6.15c-1.48,3.31-3.32-.33-5,.08-6.08,1.51-12.63-1.26-18.54,2a2.19,2.19,0,0,1-2.66-.81c-.92-1-.45-2.17,0-3.26C282.64,197.46,285.39,195.89,294.62,196.39Z" transform="translate(-108.1 -109.76)"/><path d="M265.8,196.44c3-1.79,6.12,1.52,9.66,1.18a2.75,2.75,0,0,1,3,2.12c.5,1.48-.62,2.08-1.72,2.54-2,.84-2,1.9-.58,3.34.87.91,1.23,2.11.24,3.12-1.28,1.29-2.39.52-3.36-.57a4.1,4.1,0,0,0-3.14-1.1c-3.11-.18-7.23.3-3.84-5,1-1.66-.62-1.86-1.78-1.9-1.67-.07-3.81.12-3.5-2.27C261.13,195,263.44,196.26,265.8,196.44Z" transform="translate(-108.1 -109.76)"/><path d="M356.83,158c-4.09,3.25-9.15,2.17-13.61,3.6a1.09,1.09,0,0,1-1.49-.89,2.68,2.68,0,0,1,.65-1.72c2-2.23,4.82-3,7.15-1.55C352.11,159.06,354.29,158.59,356.83,158Z" transform="translate(-108.1 -109.76)"/><path d="M393.29,117.62a5,5,0,0,0-5-3.85c-1.62-.12-2.52-1.12-2.09-2.71.57-2.16,1.88-1.11,3.08-.51a6.05,6.05,0,0,0,2.33.83C396.33,111.57,396.5,113.58,393.29,117.62Z" transform="translate(-108.1 -109.76)"/><path d="M320.69,141.6c1.1.1,1.93.58,1.94,1.75,0,1.58-1.08,2.3-2.45,2.55-1.13.21-2-.29-1.81-1.56A2.82,2.82,0,0,1,320.69,141.6Z" transform="translate(-108.1 -109.76)"/><path d="M545.81,159.39c-1.24-.11-2.5-.45-2.4-1.92s1.43-1.65,2.62-1.75,2.51.08,2.31,1.72C548.19,158.76,547.09,159.3,545.81,159.39Z" transform="translate(-108.1 -109.76)"/></g></g></svg>